<svg xmlns="http://www.w3.org/2000/svg" viewBox="0 0 1200 300" width="1200" height="300" role="img" aria-label="rieth.io">
  <rect width="1200" height="300" fill="#0B1B2A"/>

  <g transform="translate(80,50)">
    <g fill="none" stroke="#7FB8DC" stroke-width="10" stroke-linecap="butt" stroke-linejoin="miter">
      <path d="M24 28 L10 28 L10 172 L24 172"/>
      <path d="M196 28 L210 28 L210 172 L196 172"/>
    </g>
    <g transform="translate(3,0)">
      <path fill="#FFFFFF" d="M48 36 L48 164 L74 164 L74 120 L98 120 L132 164 L166 164 L132 118 C150 112 160 96 160 76 C160 52 142 36 114 36 Z M74 60 L110 60 C124 60 134 66 134 80 C134 94 124 100 110 100 L74 100 Z"/>
    </g>
  </g>

  <text x="340" y="118" font-family="JetBrains Mono, SFMono-Regular, Menlo, monospace" font-size="14" font-weight="500" letter-spacing="2.5" fill="#8795A4">CONSULTING · ENGINEERING · HOMELAB</text>

  <text x="340" y="196" font-family="Inter, Helvetica Neue, Arial, sans-serif" font-size="72" font-weight="700" letter-spacing="-1" fill="#FFFFFF">rieth<tspan fill="#7FB8DC">.</tspan>io</text>

  <text x="340" y="232" font-family="JetBrains Mono, SFMono-Regular, Menlo, monospace" font-size="14" letter-spacing="0.7" fill="#8795A4">Brian Rieth — selbstständig &amp; bei Altenbach GmbH u. Cie</text>

  <line x1="80" y1="262" x2="1120" y2="262" stroke="#1A2F45" stroke-width="1"/>
  <text x="80" y="285" font-family="JetBrains Mono, SFMono-Regular, Menlo, monospace" font-size="11" letter-spacing="0.55" fill="#8795A4">SINCE 2020</text>
  <text x="1120" y="285" text-anchor="end" font-family="JetBrains Mono, SFMono-Regular, Menlo, monospace" font-size="11" letter-spacing="0.55" fill="#8795A4">RIETH.IO</text>
</svg>
